<svg width="96" height="96" xmlns="http://www.w3.org/2000/svg" xmlns:xlink="http://www.w3.org/1999/xlink" xml:space="preserve" overflow="hidden"><defs><clipPath id="clip0"><rect x="592" y="312" width="96" height="96"/></clipPath></defs><g clip-path="url(#clip0)" transform="translate(-592 -312)"><path d="M678 334 678 383 602 383 602 334 596 334 596 390 631 390C631 391.7 632.3 393 634 393L646 393C647.7 393 649 391.7 649 390L684 390 684 334 678 334Z"/><path d="M674 328 606 328 606 379 674 379 674 328ZM612 334 638 334 638 373 612 373 612 334ZM668 373 642 373 642 334 668 334 668 373Z"/><path d="M648 344 662 344 662 347 648 347Z"/><path d="M648 350 662 350 662 353 648 353Z"/><path d="M648 356 657.7 356 657.7 359 648 359Z"/></g></svg>