<svg width="23" height="22" xmlns="http://www.w3.org/2000/svg" xmlns:xlink="http://www.w3.org/1999/xlink" xml:space="preserve" overflow="hidden"><defs><clipPath id="clip0"><rect x="17" y="149" width="23" height="22"/></clipPath></defs><g clip-path="url(#clip0)" transform="translate(-17 -149)"><path d="M11 20.1667C11.7799 20.1667 12.4286 19.5669 12.4896 18.7894L9.51042 18.7894C9.57142 19.5669 10.2201 20.1667 11 20.1667Z" transform="matrix(1.04545 0 0 1 17 149)"/><path d="M15.5132 6.69808C15.3195 6.23049 14.7835 6.00841 14.3158 6.20194L6.98248 9.23954C6.51475 9.43328 6.29267 9.96951 6.4864 10.4372 6.57944 10.6618 6.75787 10.8403 6.98248 10.9333L8.70833 11.6483 8.70833 13.0602 7.79167 13.0602 7.79167 16.956C7.79167 17.4623 8.20208 17.8727 8.70833 17.8727L13.2917 17.8727C13.7979 17.8727 14.2083 17.4623 14.2083 16.956L14.2083 13.0602 13.2917 13.0602 13.2917 11.6483 15.0173 10.9333C15.4827 10.734 15.6983 10.1951 15.499 9.72975 15.303 9.2724 14.778 9.05483 14.316 9.23954L12.0244 10.1888C11.6814 10.3307 11.4579 10.6655 11.4583 11.0367L11.4583 13.0602 10.5417 13.0602 10.5417 11.0357C10.5421 10.6646 10.3186 10.3298 9.97563 10.1878L9.72858 10.0856 15.0173 7.89479C15.4844 7.70099 15.7063 7.16549 15.5132 6.69808Z" transform="matrix(1.04545 0 0 1 17 149)"/><path d="M7.33333 8.01602C7.45355 8.01602 7.57256 7.99219 7.6835 7.9459L15.0168 4.90829C15.4883 4.72377 15.7209 4.19201 15.5363 3.72057 15.3518 3.24913 14.82 3.01654 14.3486 3.20109 14.3375 3.20542 14.3265 3.20998 14.3156 3.21475L6.98225 6.25235C6.51447 6.44595 6.29218 6.98209 6.48578 7.44989 6.62766 7.79274 6.96227 8.01625 7.33333 8.01602Z" transform="matrix(1.04545 0 0 1 17 149)"/><path d="M7.33333 5.03685C7.45355 5.03685 7.57256 5.01302 7.6835 4.96673L10.4612 3.81631C10.9266 3.61696 11.1422 3.07812 10.9429 2.61275 10.747 2.1554 10.222 1.93784 9.75998 2.12254L6.98248 3.27319C6.5147 3.46679 6.29241 4.00292 6.48601 4.47072 6.62787 4.81351 6.96236 5.03699 7.33333 5.03685Z" transform="matrix(1.04545 0 0 1 17 149)"/></g></svg>