<svg width="96" height="96" xmlns="http://www.w3.org/2000/svg" xmlns:xlink="http://www.w3.org/1999/xlink" xml:space="preserve" overflow="hidden"><defs><clipPath id="clip0"><rect x="-240" y="261" width="96" height="96"/></clipPath></defs><g clip-path="url(#clip0)" transform="translate(240 -261)"><path d="M-164 293-164 301-172 301-172 293-164 293ZM-220 329-212 329-212 337-220 337-220 329ZM-200 293-200 301-208 301-208 293-200 293ZM-188 293-188 301-196 301-196 293-188 293ZM-176 313-184 313-184 305-176 305-176 313ZM-172 313-172 305-164 305-164 313-172 313ZM-172 325-172 317-164 317-164 325-172 325ZM-196 329-188 329-188 337-196 337-196 329ZM-200 329-200 337-208 337-208 329-200 329ZM-208 317-200 317-200 325-208 325-208 317ZM-212 317-212 325-220 325-220 317-212 317ZM-212 305-212 313-220 313-220 305-212 305ZM-200 313-208 313-208 305-200 305-200 313ZM-196 313-196 305-188 305-188 313-196 313ZM-188 325-196 325-196 317-188 317-188 325ZM-184 325-184 317-176 317-176 325-184 325ZM-176 293-176 301-184 301-184 293-176 293ZM-226 287-226 343-158 343-158 287-226 287Z"/><path d="M-226 275-158 275-158 283-226 283Z"/></g></svg>