<svg width="96" height="96" xmlns="http://www.w3.org/2000/svg" xmlns:xlink="http://www.w3.org/1999/xlink" xml:space="preserve" overflow="hidden"><defs><clipPath id="clip0"><rect x="695" y="328" width="96" height="96"/></clipPath></defs><g clip-path="url(#clip0)" transform="translate(-695 -328)"><path d="M745.006 358.1 745.006 362.1C744.306 362.1 743.706 362 743.006 362 742.338 361.983 741.669 362.017 741.006 362.1L741.006 358.1C737.241 358.285 733.529 359.061 730.006 360.4L731.506 364C730.206 364.5 729.006 365 727.806 365.6L726.306 361.9C724.45 362.81 722.676 363.881 721.006 365.1L716.706 360.8C724.28 355.08 733.515 351.99 743.006 352 767.307 352 787.006 371.699 787.006 396L787.006 400 781.006 400 781.006 396C780.993 391.992 780.352 388.01 779.106 384.2L775.406 385.7C775.006 384.4 774.506 383.2 774.006 382L777.706 380.5C776.195 377.111 774.171 373.974 771.706 371.2L768.906 374C768.024 372.985 767.089 372.017 766.106 371.1L768.906 368.3C766.156 365.744 763.059 363.589 759.706 361.9L758.206 365.6C757.006 365 755.806 364.5 754.506 364L756.006 360.3C752.477 358.994 748.765 358.252 745.006 358.1Z"/><path d="M706.906 370.8 711.206 375.1C710.104 376.789 709.135 378.561 708.306 380.4L712.006 382C711.506 383.2 711.006 384.5 710.606 385.7L706.906 384.2C705.66 388.01 705.019 391.992 705.006 396L705.006 400 699.006 400 699.006 396C698.986 386.987 701.744 378.188 706.906 370.8Z"/><path d="M745.806 394.2C746.006 394.3 746.106 394.5 746.306 394.7 747.747 396.408 747.529 398.961 745.821 400.401 744.113 401.842 741.56 401.625 740.12 399.917 740.115 399.911 740.111 399.906 740.106 399.9L709.006 363Z"/></g></svg>