<svg width="1243" height="1471" xmlns="http://www.w3.org/2000/svg" xmlns:xlink="http://www.w3.org/1999/xlink" xml:space="preserve" overflow="hidden"><defs><clipPath id="clip0"><rect x="1689" y="403" width="1243" height="1471"/></clipPath></defs><g clip-path="url(#clip0)" transform="translate(-1689 -403)"><rect x="1720" y="432" width="385" height="175" fill="#01762D"/><text fill="#FFFFFF" font-family="Arial,Arial_MSFontService,sans-serif" font-weight="400" font-size="128" transform="matrix(1 0 0 1 1766.65 567)">A<tspan font-size="73" x="144.593" y="-8">0</tspan><tspan font-size="73" x="185.27" y="-8">-</tspan><tspan font-size="73" x="209.905" y="-8">2</tspan><tspan font-size="73" x="250.583" y="-8">5</tspan></text><rect x="1720.5" y="628.5" width="480" height="175" stroke="#000000" stroke-width="4.58333" stroke-miterlimit="8" fill="#00A044"/><text fill="#FFFFFF" font-family="Arial,Arial_MSFontService,sans-serif" font-weight="400" font-size="128" transform="matrix(1 0 0 1 1766.65 762)">B<tspan font-size="73" x="144.593" y="-8">26</tspan><tspan font-size="73" x="225.947" y="-8">-</tspan><tspan font-size="73" x="250.583" y="-8">50</tspan></text><rect x="1720" y="823" width="587" height="175" fill="#98BD0D"/><text fill="#FFFFFF" font-family="Arial,Arial_MSFontService,sans-serif" font-weight="400" font-size="128" transform="matrix(1 0 0 1 1766.65 957)">C<tspan font-size="73" x="144.593" y="-8">51</tspan><tspan font-size="73" x="225.947" y="-8">-</tspan><tspan font-size="73" x="250.583" y="-8">75</tspan></text><rect x="1720" y="1016" width="692" height="176" fill="#FCCD01"/><text fill="#FFFFFF" font-family="Arial,Arial_MSFontService,sans-serif" font-weight="400" font-size="128" transform="matrix(1 0 0 1 1766.65 1151)">D<tspan font-size="73" x="144.593" y="-8">76</tspan><tspan font-size="73" x="225.947" y="-8">-</tspan><tspan font-size="73" x="250.583" y="-8">100</tspan></text><rect x="1720" y="1246" width="794" height="176" fill="#F6B261"/><text fill="#FFFFFF" font-family="Arial,Arial_MSFontService,sans-serif" font-weight="400" font-size="128" transform="matrix(1 0 0 1 1766.65 1381)">E<tspan font-size="73" x="144.593" y="-8">101</tspan><tspan font-size="73" x="266.624" y="-8">-</tspan><tspan font-size="73" x="291.26" y="-8">125</tspan></text><rect x="1720" y="1441" width="895" height="176" fill="#EF7F01"/><text fill="#FFFFFF" font-family="Arial,Arial_MSFontService,sans-serif" font-weight="400" font-size="128" transform="matrix(1 0 0 1 1766.65 1576)">F<tspan font-size="73" x="144.593" y="-8">126</tspan><tspan font-size="73" x="266.624" y="-8">-</tspan><tspan font-size="73" x="291.26" y="-8">150</tspan></text><rect x="1720" y="1633" width="1005" height="176" fill="#EF7F01"/><text fill="#FFFFFF" font-family="Arial,Arial_MSFontService,sans-serif" font-weight="400" font-size="128" transform="matrix(1 0 0 1 1766.65 1768)">G<tspan font-size="73" x="144.593" y="-8">Over 150</tspan></text><path d="M1720 1217 2926.1 1217" stroke="#4472C4" stroke-width="10.3125" stroke-miterlimit="8" stroke-dasharray="10.3125 10.3125" fill="none" fill-rule="evenodd"/><path d="M2373.5 773.5 2339.92 773.5 2274.5 713.5 2339.92 653.5 2373.5 653.5Z" stroke="#000000" stroke-width="4.58333" stroke-miterlimit="8" fill="#00A044" fill-rule="evenodd"/><path d="M2475.12 686.009 2446.44 727.322 2475.12 727.322ZM2477.19 667.947 2486.37 667.947 2486.37 727.322 2498.75 727.322 2498.75 737.634 2486.37 737.634 2486.37 759.572 2475.12 759.572 2475.12 737.634 2435.37 737.634 2435.37 727.322ZM2541.5 667.572C2550.29 667.572 2557.25 670.009 2562.37 674.884 2567.5 679.759 2570.06 685.801 2570.06 693.009 2570.06 696.676 2569.31 700.28 2567.81 703.822 2566.31 707.363 2563.82 711.093 2560.34 715.009 2556.86 718.926 2551.08 724.301 2543 731.134 2536.25 736.801 2531.92 740.645 2530 742.666 2528.08 744.686 2526.5 746.718 2525.25 748.759L2570.19 748.759 2570.19 759.572 2509.62 759.572C2509.54 756.863 2509.98 754.259 2510.94 751.759 2512.48 747.634 2514.95 743.572 2518.34 739.572 2521.74 735.572 2526.65 730.947 2533.06 725.697 2543.02 717.53 2549.75 711.061 2553.25 706.291 2556.75 701.52 2558.5 697.009 2558.5 692.759 2558.5 688.301 2556.91 684.541 2553.72 681.478 2550.53 678.416 2546.37 676.884 2541.25 676.884 2535.83 676.884 2531.5 678.509 2528.25 681.759 2525 685.009 2523.35 689.509 2523.31 695.259L2511.75 694.072C2512.54 685.447 2515.52 678.874 2520.69 674.353 2525.85 669.832 2532.79 667.572 2541.5 667.572Z" stroke="#000000" stroke-width="3" stroke-linejoin="round" stroke-miterlimit="10" fill="#00A044" fill-rule="evenodd"/><text fill="#000000" fill-opacity="0" font-family="Arial,Arial_MSFontService,sans-serif" font-size="92" x="2435.37" y="748.072">42</text></g></svg>