<?xml version="1.0"?><svg fill="#000000" xmlns="http://www.w3.org/2000/svg"  viewBox="0 0 50 50" width="50px" height="50px">    <path d="M25,2C12.297,2,2,12.297,2,25s10.297,23,23,23s23-10.297,23-23S37.703,2,25,2z M25,11c1.657,0,3,1.343,3,3s-1.343,3-3,3 s-3-1.343-3-3S23.343,11,25,11z M29,38h-2h-4h-2v-2h2V23h-2v-2h2h4v2v13h2V38z"/></svg>
<svg width="96" height="96" xmlns="http://www.w3.org/2000/svg" xmlns:xlink="http://www.w3.org/1999/xlink" xml:space="preserve" overflow="hidden"><defs><clipPath id="clip0"><rect x="-196" y="423" width="96" height="96"/></clipPath></defs><g clip-path="url(#clip0)" transform="translate(196 -423)"><path d="M-148 433C-169 433-186 450-186 471-186 492-169 509-148 509-127 509-110 492-110 471-110 450-127 433-148 433ZM-150 443C-147.2 443-145 445.2-145 448-145 450.8-147.2 453-150 453-152.8 453-155 450.8-155 448-155 445.2-152.8 443-150 443ZM-138 499-158 499-158 493-151 493-151 463-157 463-157 457-145 457-145 463-145 493-138 493-138 499Z"/></g></svg>