<svg width="23" height="23" xmlns="http://www.w3.org/2000/svg" xmlns:xlink="http://www.w3.org/1999/xlink" xml:space="preserve" overflow="hidden"><defs><clipPath id="clip0"><rect x="17" y="198" width="23" height="23"/></clipPath></defs><g clip-path="url(#clip0)" transform="translate(-17 -198)"><path d="M27.901 202.792C24.1875 202.792 21.1927 205.786 21.1927 209.5 21.1927 210.674 21.5042 211.776 22.0312 212.734 22.5344 212.207 23.0854 211.68 23.6844 211.105 25.1938 209.692 26.9667 208.254 28.4521 207.2 28.5479 207.128 28.6437 207.08 28.7635 207.08 29.0271 207.08 29.2427 207.296 29.2427 207.559 29.2427 207.727 29.1708 207.847 29.051 207.943L29.051 207.943C26.9188 209.476 24.0917 211.848 22.175 214.004 22.175 214.004 21.9115 214.292 21.7917 214.435L21.7917 214.435C20.7135 215.705 19.9948 216.855 19.9948 217.67L21.4323 217.67C21.4323 217.143 22.2708 215.993 23.5406 214.627 24.7146 215.633 26.224 216.232 27.901 216.232 29.099 216.232 30.249 215.921 31.2313 215.346L31.2313 215.346C36.3583 212.495 37.0052 207.248 37.0052 201.354 37.0052 201.354 31.4229 202.887 27.901 202.792Z"/></g></svg>