<svg width="23" height="22" xmlns="http://www.w3.org/2000/svg" xmlns:xlink="http://www.w3.org/1999/xlink" xml:space="preserve" overflow="hidden"><defs><clipPath id="clip0"><rect x="17" y="248" width="23" height="22"/></clipPath></defs><g clip-path="url(#clip0)" transform="translate(-17 -248)"><path d="M18.1042 8.25C18.3573 8.25 18.5625 8.0448 18.5625 7.79167L18.5625 6.64583C18.5625 6.4661 18.4575 6.30293 18.2939 6.22852L13.2522 3.93685C13.2175 3.92159 13.181 3.91075 13.1436 3.90454L13.0595 3.15723C13.051 3.0811 13.0236 3.00829 12.9798 2.94548L11.3756 0.653812C11.2305 0.446373 10.9448 0.395805 10.7373 0.54087 10.6934 0.571617 10.6552 0.609845 10.6244 0.653812L9.02023 2.94548C8.97637 3.00829 8.94896 3.0811 8.94048 3.15723L8.85637 3.90454C8.81895 3.91071 8.78247 3.92157 8.74775 3.93685L3.70608 6.22852C3.54248 6.30293 3.43745 6.4661 3.4375 6.64583L3.4375 7.79167C3.4375 8.0448 3.6427 8.25 3.89583 8.25 4.14897 8.25 4.35417 8.0448 4.35417 7.79167L4.35417 7.10417 8.49773 7.10417 8.26238 9.19967 3.707 11.2702C3.54303 11.3443 3.43761 11.5076 3.4375 11.6875L3.4375 12.8333C3.4375 13.0865 3.6427 13.2917 3.89583 13.2917 4.14897 13.2917 4.35417 13.0865 4.35417 12.8333L4.35417 12.1458 7.93123 12.1458 7.80244 13.2933 4.77171 20.8771C4.67775 21.1121 4.7921 21.3788 5.02714 21.4728 5.13975 21.5178 5.26561 21.5164 5.37717 21.4688L10.9888 19.0761 16.6338 21.4851C16.8666 21.5846 17.1359 21.4765 17.2354 21.2438 17.2832 21.1321 17.2846 21.0061 17.2395 20.8934L14.1994 13.2935 14.0708 12.1458 17.6458 12.1458 17.6458 12.8333C17.6458 13.0865 17.851 13.2917 18.1042 13.2917 18.3573 13.2917 18.5625 13.0865 18.5625 12.8333L18.5625 11.6875C18.5625 11.5078 18.4575 11.3446 18.2939 11.2702L13.7395 9.19967 13.5039 7.10417 17.6458 7.10417 17.6458 7.79167C17.6458 8.0448 17.851 8.25 18.1042 8.25ZM9.67771 4.8125 12.3241 4.8125 12.4786 6.1875 9.52233 6.1875ZM11 1.716 12.1616 3.3754 12.221 3.89583 9.7806 3.89583 9.83927 3.3754ZM6.01265 6.1875 8.73973 4.94771 8.60085 6.1875ZM13.0451 11.2292 8.95675 11.2292 9.11121 9.85417 12.8906 9.85417ZM6.01265 11.2292 8.1439 10.2607 8.03435 11.2292ZM13.5437 14.124 14.1737 15.6979 12.1087 14.7698ZM14.1946 16.7122 10.9888 18.0794 7.78571 16.7122 10.9906 15.2719ZM7.83292 15.6858 8.45373 14.132 9.87181 14.7693ZM6.03167 20.1928 7.1351 17.4316 9.82002 18.5774ZM12.1564 18.5779 14.8642 17.4235 15.9782 20.2088ZM13.2706 13.2419 10.9899 14.267 8.72896 13.2506 8.85363 12.1458 13.1482 12.1458ZM15.9892 11.2292 13.9675 11.2292 13.8586 10.2607ZM12.7875 8.9375 9.2141 8.9375 9.42035 7.10417 12.5813 7.10417ZM13.2616 4.94771 15.9892 6.1875 13.401 6.1875Z" transform="matrix(1.04545 0 0 1 17 248)"/></g></svg>