<svg width="23" height="23" xmlns="http://www.w3.org/2000/svg" xmlns:xlink="http://www.w3.org/1999/xlink" xml:space="preserve" overflow="hidden"><defs><clipPath id="clip0"><rect x="17" y="355" width="23" height="23"/></clipPath></defs><g clip-path="url(#clip0)" transform="translate(-17 -355)"><path d="M22.5104 374.646 22.5104 358.354 28.5 358.354 28.5 363.385 34.4896 363.385 34.4896 374.646 22.5104 374.646ZM29.9375 358.953 32.9323 361.948 29.9375 361.948 29.9375 358.953ZM29.9375 356.917 21.0729 356.917 21.0729 376.083 35.9271 376.083 35.9271 362.188 29.9375 356.917Z"/><path d="M23.9479 365.781 33.0521 365.781 33.0521 366.74 23.9479 366.74Z"/><path d="M23.9479 363.865 27.0625 363.865 27.0625 364.823 23.9479 364.823Z"/><path d="M23.9479 367.698 33.0521 367.698 33.0521 368.656 23.9479 368.656Z"/><path d="M23.9479 369.615 33.0521 369.615 33.0521 370.573 23.9479 370.573Z"/><path d="M23.9479 371.531 33.0521 371.531 33.0521 372.49 23.9479 372.49Z"/></g></svg>