<svg width="23" height="22" xmlns="http://www.w3.org/2000/svg" xmlns:xlink="http://www.w3.org/1999/xlink" xml:space="preserve" overflow="hidden"><defs><clipPath id="clip0"><rect x="19" y="470" width="23" height="22"/></clipPath></defs><g clip-path="url(#clip0)" transform="translate(-19 -470)"><path d="M16.6235 4.8125C16.2437 3.6052 14.957 2.93441 13.7497 3.31425 13.0356 3.53895 12.4762 4.09835 12.2515 4.8125L3.20833 4.8125 3.20833 6.1875 12.2515 6.1875C12.6313 7.3948 13.918 8.06559 15.1253 7.68575 15.8394 7.46105 16.3988 6.90165 16.6235 6.1875L18.7917 6.1875 18.7917 4.8125ZM14.4375 6.41667C13.9312 6.41667 13.5208 6.00625 13.5208 5.5 13.5208 4.99375 13.9312 4.58333 14.4375 4.58333 14.9438 4.58333 15.3542 4.99375 15.3542 5.5 15.3542 6.00625 14.9438 6.41667 14.4375 6.41667Z" transform="matrix(1.04545 0 0 1 19 470)"/><path d="M13.5208 14.2083C12.5205 14.2096 11.6361 14.8586 11.3348 15.8125L3.20833 15.8125 3.20833 17.1875 11.3348 17.1875C11.7147 18.3948 13.0013 19.0656 14.2086 18.6857 14.9228 18.461 15.4822 17.9017 15.7069 17.1875L18.7917 17.1875 18.7917 15.8125 15.7069 15.8125C15.4055 14.8586 14.5212 14.2096 13.5208 14.2083ZM13.5208 17.4167C13.0146 17.4167 12.6042 17.0063 12.6042 16.5 12.6042 15.9937 13.0146 15.5833 13.5208 15.5833 14.0271 15.5833 14.4375 15.9937 14.4375 16.5 14.4375 17.0063 14.0271 17.4167 13.5208 17.4167Z" transform="matrix(1.04545 0 0 1 19 470)"/><path d="M7.79167 8.70833C6.79131 8.70962 5.90695 9.35857 5.60565 10.3125L3.20833 10.3125 3.20833 11.6875 5.60565 11.6875C5.98549 12.8948 7.27215 13.5656 8.47944 13.1857 9.19362 12.961 9.75299 12.4017 9.97769 11.6875L18.7917 11.6875 18.7917 10.3125 9.97769 10.3125C9.67638 9.35857 8.79203 8.70962 7.79167 8.70833ZM7.79167 11.9167C7.28541 11.9167 6.875 11.5063 6.875 11 6.875 10.4937 7.28541 10.0833 7.79167 10.0833 8.29792 10.0833 8.70833 10.4937 8.70833 11 8.70833 11.5063 8.29792 11.9167 7.79167 11.9167Z" transform="matrix(1.04545 0 0 1 19 470)"/></g></svg>