<svg width="96" height="96" xmlns="http://www.w3.org/2000/svg" xmlns:xlink="http://www.w3.org/1999/xlink" xml:space="preserve" overflow="hidden"><defs><clipPath id="clip0"><rect x="726" y="360" width="96" height="96"/></clipPath></defs><g clip-path="url(#clip0)" transform="translate(-726 -360)"><path d="M774 446.3C767.5 446.3 761.8 441.7 760.4 435.4 758.9 429 762.1 422.5 768 419.7L768 375.7C768 372.4 770.7 369.7 774 369.7 777.3 369.7 780 372.4 780 375.7L780 419.7C785.9 422.5 789 429 787.6 435.4 786.1 441.7 780.5 446.2 774 446.3L774 446.3ZM786 416.3 786 375.7C786 369.1 780.6 363.7 774 363.7 767.4 363.7 762 369 762 375.7L762 416.3C755.1 421.5 752.3 430.5 755 438.6 757.7 446.8 765.4 452.3 774 452.3 782.6 452.3 790.3 446.8 793 438.6 795.7 430.5 792.9 421.5 786 416.3Z"/><path d="M776 422.5 776 398.3 772 398.3 772 422.5C767 423.5 763.5 428.2 764.1 433.3 764.6 438.4 768.9 442.3 774 442.3 779.1 442.3 783.4 438.4 783.9 433.3 784.5 428.2 781 423.5 776 422.5Z"/></g></svg>